<?xml version="1.0" standalone="no"?>
<!DOCTYPE svg PUBLIC "-//W3C//DTD SVG 20010904//EN"
 "http://www.w3.org/TR/2001/REC-SVG-20010904/DTD/svg10.dtd">
<svg version="1.0" xmlns="http://www.w3.org/2000/svg"
 width="200.000000pt" height="70.000000pt" viewBox="0 0 200.000000 70.000000"
 preserveAspectRatio="xMidYMid meet">

<g transform="translate(0.000000,70.000000) scale(0.100000,-0.100000)"
fill="#000000" stroke="none">
<path d="M30 605 c0 -54 20 -61 21 -7 l1 37 11 -32 c18 -47 25 -49 41 -12 l15
34 1 -32 c0 -18 5 -33 10 -33 6 0 10 20 10 45 0 54 -21 61 -41 13 l-13 -32
-13 32 c-20 49 -43 42 -43 -13z"/>
<path d="M168 605 c-10 -25 -13 -45 -8 -45 6 0 10 5 10 10 0 6 11 10 25 10 14
0 25 -4 25 -10 0 -5 4 -10 9 -10 6 0 3 20 -6 45 -8 25 -20 45 -27 45 -6 0 -19
-20 -28 -45z m42 -7 c0 -5 -7 -8 -15 -8 -17 0 -18 2 -9 25 5 13 8 14 15 3 5
-7 9 -16 9 -20z"/>
<path d="M250 606 c0 -25 5 -46 10 -46 6 0 10 9 10 20 0 11 4 20 9 20 5 0 11
-9 14 -20 3 -11 10 -20 17 -20 6 0 8 5 3 12 -4 7 -7 26 -8 43 0 25 -4 31 -27
33 -27 3 -28 2 -28 -42z m40 19 c0 -8 -4 -15 -10 -15 -5 0 -10 7 -10 15 0 8 5
15 10 15 6 0 10 -7 10 -15z"/>
<path d="M330 605 c0 -25 5 -45 10 -45 6 0 10 20 10 45 0 25 -4 45 -10 45 -5
0 -10 -20 -10 -45z"/>
<path d="M378 605 c-10 -25 -13 -45 -8 -45 6 0 10 5 10 10 0 6 11 10 25 10 14
0 25 -4 25 -10 0 -5 4 -10 9 -10 6 0 3 20 -6 45 -8 25 -20 45 -27 45 -6 0 -19
-20 -28 -45z m42 -7 c0 -5 -7 -8 -15 -8 -17 0 -18 2 -9 25 5 13 8 14 15 3 5
-7 9 -16 9 -20z"/>
<path d="M496 606 c9 -25 21 -46 28 -46 6 0 19 20 28 45 10 25 13 45 8 45 -5
0 -14 -17 -21 -37 l-12 -38 -12 34 c-6 19 -17 37 -23 39 -8 2 -6 -12 4 -42z"/>
<path d="M588 605 c-10 -25 -13 -45 -8 -45 6 0 10 5 10 10 0 6 11 10 25 10 14
0 25 -4 25 -10 0 -5 4 -10 9 -10 6 0 3 20 -6 45 -8 25 -20 45 -27 45 -6 0 -19
-20 -28 -45z m42 -7 c0 -5 -7 -8 -15 -8 -17 0 -18 2 -9 25 5 13 8 14 15 3 5
-7 9 -16 9 -20z"/>
<path d="M673 634 c-4 -11 2 -23 18 -35 l24 -18 -25 -10 c-23 -9 -23 -10 -4
-10 12 -1 27 5 34 13 9 12 7 18 -9 33 -25 21 -28 38 -5 29 8 -3 12 -2 9 4 -10
16 -35 12 -42 -6z"/>
<path d="M740 605 c0 -25 5 -45 10 -45 6 0 10 20 10 45 0 25 -4 45 -10 45 -5
0 -10 -20 -10 -45z"/>
<path d="M780 605 c0 -43 1 -45 28 -44 16 1 20 3 10 6 -13 3 -18 15 -18 44 0
21 -4 39 -10 39 -5 0 -10 -20 -10 -45z"/>
<path d="M840 605 c0 -25 5 -45 10 -45 6 0 10 20 10 45 0 25 -4 45 -10 45 -5
0 -10 -20 -10 -45z"/>
<path d="M880 605 c0 -25 5 -45 10 -45 6 0 10 10 10 22 l0 22 16 -22 c21 -31
38 -28 18 3 -16 24 -16 27 1 45 22 24 9 27 -17 3 -17 -15 -18 -15 -18 0 0 10
-4 17 -10 17 -5 0 -10 -20 -10 -45z"/>
<path d="M960 605 c0 -25 5 -45 10 -45 6 0 10 20 10 45 0 25 -4 45 -10 45 -5
0 -10 -20 -10 -45z"/>
<path d="M38 425 c-10 -25 -13 -45 -8 -45 6 0 10 5 10 10 0 6 11 10 25 10 14
0 25 -4 25 -10 0 -5 4 -10 9 -10 6 0 3 20 -6 45 -8 25 -20 45 -27 45 -6 0 -19
-20 -28 -45z m42 -7 c0 -5 -7 -8 -15 -8 -17 0 -18 2 -9 25 5 13 8 14 15 3 5
-7 9 -16 9 -20z"/>
<path d="M120 425 c0 -51 20 -63 21 -12 l0 32 16 -32 c24 -48 43 -42 43 12 0
51 -20 63 -21 13 l0 -33 -16 33 c-24 47 -43 41 -43 -13z"/>
<path d="M228 425 c-10 -25 -13 -45 -8 -45 6 0 10 5 10 10 0 6 11 10 25 10 14
0 25 -4 25 -10 0 -5 4 -10 9 -10 6 0 3 20 -6 45 -8 25 -20 45 -27 45 -6 0 -19
-20 -28 -45z m42 -7 c0 -5 -7 -8 -15 -8 -17 0 -18 2 -9 25 5 13 8 14 15 3 5
-7 9 -16 9 -20z"/>
<path d="M313 454 c-4 -11 2 -23 18 -35 l24 -18 -25 -10 c-23 -9 -23 -10 -4
-10 12 -1 27 5 34 13 9 12 7 18 -9 33 -25 21 -28 38 -5 29 8 -3 12 -2 9 4 -10
16 -35 12 -42 -6z"/>
<path d="M382 463 c12 -3 18 -17 21 -46 l4 -42 1 42 c2 30 7 43 20 46 9 3 -1
5 -23 5 -22 0 -32 -2 -23 -5z"/>
<path d="M458 425 c-10 -25 -13 -45 -8 -45 6 0 10 5 10 10 0 6 11 10 25 10 14
0 25 -4 25 -10 0 -5 4 -10 9 -10 6 0 3 20 -6 45 -8 25 -20 45 -27 45 -6 0 -19
-20 -28 -45z m42 -7 c0 -5 -7 -8 -15 -8 -17 0 -18 2 -9 25 5 13 8 14 15 3 5
-7 9 -16 9 -20z"/>
<path d="M543 454 c-4 -11 2 -23 18 -35 l24 -18 -25 -10 c-23 -9 -23 -10 -4
-10 12 -1 27 5 34 13 9 12 7 18 -9 33 -25 21 -28 38 -5 29 8 -3 12 -2 9 4 -10
16 -35 12 -42 -6z"/>
<path d="M622 458 c-6 -6 -12 -24 -12 -39 0 -31 26 -45 61 -34 16 5 20 14 17
43 -3 31 -7 37 -28 40 -14 2 -31 -3 -38 -10z m50 -15 c7 -30 -3 -53 -23 -53
-14 0 -19 7 -19 28 0 16 3 32 7 35 12 13 32 7 35 -10z"/>
<path d="M710 426 c0 -25 5 -46 10 -46 6 0 10 6 10 14 0 7 9 16 21 19 32 9 22
51 -13 55 -27 3 -28 2 -28 -42z m45 14 c0 -7 -6 -15 -12 -17 -8 -3 -13 4 -13
17 0 13 5 20 13 18 6 -3 12 -11 12 -18z"/>
<path d="M802 458 c-6 -6 -12 -24 -12 -39 0 -31 26 -45 61 -34 16 5 20 14 17
43 -3 31 -7 37 -28 40 -14 2 -31 -3 -38 -10z m50 -15 c7 -30 -3 -53 -23 -53
-14 0 -19 7 -19 28 0 16 3 32 7 35 12 13 32 7 35 -10z"/>
<path d="M892 434 c6 -72 70 -72 76 0 2 21 -1 36 -7 36 -6 0 -11 -18 -11 -41
0 -33 -3 -40 -17 -37 -13 2 -19 14 -21 41 -2 20 -8 37 -13 37 -6 0 -9 -16 -7
-36z"/>
<path d="M990 425 c0 -43 1 -45 28 -44 16 1 20 3 10 6 -13 3 -18 15 -18 44 0
21 -4 39 -10 39 -5 0 -10 -20 -10 -45z"/>
<path d="M1062 458 c-6 -6 -12 -24 -12 -39 0 -31 26 -45 61 -34 16 5 20 14 17
43 -3 31 -7 37 -28 40 -14 2 -31 -3 -38 -10z m50 -15 c7 -30 -3 -53 -23 -53
-14 0 -19 7 -19 28 0 16 3 32 7 35 12 13 32 7 35 -10z"/>
<path d="M1152 434 c6 -72 70 -72 76 0 2 21 -1 36 -7 36 -6 0 -11 -18 -11 -41
0 -33 -3 -40 -17 -37 -13 2 -19 14 -21 41 -2 20 -8 37 -13 37 -6 0 -9 -16 -7
-36z"/>
</g>
</svg>
